<?xml version="1.0" encoding="UTF-8" standalone="no"?>
<!DOCTYPE svg PUBLIC "-//W3C//DTD SVG 1.1//EN" "http://www.w3.org/Graphics/SVG/1.1/DTD/svg11.dtd">
<svg width="100%" height="100%" viewBox="0 0 13 16" version="1.1" xmlns="http://www.w3.org/2000/svg" xmlns:xlink="http://www.w3.org/1999/xlink" xml:space="preserve" xmlns:serif="http://www.serif.com/" style="fill-rule:evenodd;clip-rule:evenodd;stroke-linejoin:round;stroke-miterlimit:2;">
    <g transform="matrix(0.123062,0,0,0.126234,-1.10209,0.362983)">
        <path id="path2630" d="M60,7.116C62.76,7.116 65,9.356 65,12.116C65,14.876 62.76,17.116 60,17.116C57.24,17.116 55,14.876 55,12.116C55,9.356 57.24,7.116 60,7.116ZM62.5,26.428L77.35,26.247L77.35,31.222L62.475,31.222L63.188,52.472L59.638,56.022L56.45,52.472L56.8,31.222L41.913,31.222L41.913,26.247L57.188,26.303L57.188,22.241C52.753,21.012 49.5,16.939 49.5,12.116C49.5,6.32 54.204,1.616 60,1.616C65.796,1.616 70.5,6.32 70.5,12.116C70.5,17.051 67.092,21.182 62.5,22.303L62.5,26.428ZM56.088,110.959L55.388,103.859L48.388,102.434L41.825,99.997L36.25,96.772L17.825,118.384L13.925,115.209L32,93.934L27.163,88.797L26.325,87.909L21.013,93.234L17.113,68.784L32.7,81.197L28.813,85.072L34.488,89.259L35.538,90.034L56.45,65.247L13.563,15.622L17.113,12.084L59.638,61.684L101.813,12.084L105.7,15.259L62.825,65.247L84.088,90.034L89.675,85.697L90.463,85.072L86.575,81.197L102.162,68.422L98.975,93.234L93.3,87.909L88.313,92.909L87.275,93.934L105.7,115.209L102.162,118.384L83.375,96.772L77.175,100.234L70.55,102.584L63.888,103.859L63.188,110.959L56.088,110.959M39.788,92.522L46.388,95.159L53.3,96.547L55.388,96.772L55.737,79.047L59.638,74.459L63.538,79.047L63.888,96.772L70.875,95.559L77.575,93.309L79.488,92.522L59.638,69.134L39.788,92.522Z" style="fill:rgb(163,0,117);"/>
    </g>
</svg>
