<?xml version="1.0" encoding="UTF-8" standalone="no"?>
<!DOCTYPE svg PUBLIC "-//W3C//DTD SVG 1.1//EN" "http://www.w3.org/Graphics/SVG/1.1/DTD/svg11.dtd">
<svg width="100%" height="100%" viewBox="0 0 28 27" version="1.1" xmlns="http://www.w3.org/2000/svg" xmlns:xlink="http://www.w3.org/1999/xlink" xml:space="preserve" xmlns:serif="http://www.serif.com/" style="fill-rule:evenodd;clip-rule:evenodd;">
    <g transform="matrix(0.619021,-0.619021,0.618976,0.618976,2.34929,13.223)">
        <g id="g9">
            <path id="path13" d="M14.688,3.772C14.619,3.703 14.53,3.709 14.012,3.949C13.951,3.977 13.727,4.135 13.727,4.135C13.727,4.135 13.611,4.029 13.582,4C13.527,3.945 13.402,3.919 13.304,3.942C13.001,4.012 11.79,4.859 11.316,5.333C11.021,5.627 10.82,5.779 10.739,5.768C10.67,5.759 10.373,5.648 10.08,5.521C9.564,5.296 9.463,5.211 6.64,2.675C4.405,0.666 3.684,0.052 3.521,0.015C3.068,-0.086 2.647,0.306 2.123,1.318L1.852,1.84L7.302,9.453L3.836,14.016L3.65,13.912C3.548,13.854 2.953,13.377 2.328,12.852C1.703,12.326 1.132,11.891 1.059,11.884C0.767,11.857 -0.154,13.028 0.022,13.204C0.3,13.481 1.188,14.645 1.197,14.744C1.204,14.814 1.967,15.814 2.307,16.154C2.646,16.494 3.647,17.257 3.717,17.263C3.815,17.273 4.979,18.161 5.257,18.438C5.432,18.614 6.604,17.694 6.577,17.401C6.57,17.329 6.134,16.758 5.609,16.133C5.083,15.507 4.606,14.913 4.549,14.811L4.444,14.625L9.008,11.158C9.008,11.158 16.621,16.609 16.621,16.609L17.143,16.338C18.155,15.813 18.546,15.393 18.445,14.94C18.409,14.777 17.794,14.055 15.785,11.82C13.249,8.998 13.165,8.896 12.94,8.38C12.813,8.088 12.701,7.791 12.692,7.722C12.682,7.64 12.833,7.439 13.128,7.145C13.602,6.671 14.448,5.46 14.518,5.156C14.541,5.058 14.516,4.934 14.46,4.878C14.431,4.85 14.327,4.735 14.327,4.735C14.327,4.735 14.485,4.511 14.513,4.45C14.753,3.932 14.758,3.842 14.688,3.772L14.688,3.772Z" style="fill:rgb(158,127,44);fill-rule:nonzero;"/>
        </g>
    </g>
    <g id="path2994" transform="matrix(0.99476,0,0,0.969461,2.59987,3.95925)">
        <path d="M22.373,9.83L22.373,9.831C22.373,16.247 17.228,21.526 10.975,21.526C4.722,21.526 -0.424,16.247 -0.424,9.831L-0.424,9.83C-0.424,3.414 4.722,-1.865 10.975,-1.865C17.228,-1.865 22.373,3.414 22.373,9.83Z" style="fill:none;fill-rule:nonzero;stroke:rgb(158,127,44);stroke-width:1.71px;"/>
    </g>
</svg>
