<?xml version="1.0" encoding="UTF-8" standalone="no"?>
<!DOCTYPE svg PUBLIC "-//W3C//DTD SVG 1.1//EN" "http://www.w3.org/Graphics/SVG/1.1/DTD/svg11.dtd">
<svg width="100%" height="100%" viewBox="0 0 10 31" version="1.1" xmlns="http://www.w3.org/2000/svg" xmlns:xlink="http://www.w3.org/1999/xlink" xml:space="preserve" xmlns:serif="http://www.serif.com/" style="fill-rule:evenodd;clip-rule:evenodd;stroke-linejoin:round;stroke-miterlimit:2;">
    <g transform="matrix(0.101426,0,0,0.0958129,0.566929,0.566929)">
        <path id="path90440" d="M6.375,0L6.375,47.563L26.75,47.563C21.001,68.092 15.472,90.976 12.938,147.406L0,147.406L0,153.063L29.688,153.063C30.975,158.595 35.921,162.719 41.844,162.719C47.769,162.719 52.715,158.598 54,153.063L83.844,153.063L83.844,147.406L69.469,147.406C65.273,91.988 60.062,68.807 54.781,47.563L75.438,47.563L75.438,0L6.375,0ZM12.844,4.563L66.938,4.563L66.938,39.75L12.844,39.75L12.844,4.563ZM33.438,47.563L48.625,47.563C54.507,74.806 60.555,100.176 64.563,147.406L54,147.406C52.715,141.871 47.769,137.75 41.844,137.75C35.921,137.75 30.975,141.873 29.688,147.406L19.531,147.406C22.365,96.331 27.193,72.224 33.438,47.563ZM41.844,142.719C45.984,142.719 49.344,146.079 49.344,150.219C49.344,154.359 45.984,157.719 41.844,157.719C37.704,157.719 34.344,154.359 34.344,150.219C34.344,146.079 37.704,142.719 41.844,142.719Z" style="fill:rgb(158,127,44);"/>
    </g>
</svg>
