<?xml version="1.0" encoding="UTF-8" standalone="no"?>
<!DOCTYPE svg PUBLIC "-//W3C//DTD SVG 1.1//EN" "http://www.w3.org/Graphics/SVG/1.1/DTD/svg11.dtd">
<svg width="100%" height="100%" viewBox="0 0 24 19" version="1.1" xmlns="http://www.w3.org/2000/svg" xmlns:xlink="http://www.w3.org/1999/xlink" xml:space="preserve" xmlns:serif="http://www.serif.com/" style="fill-rule:evenodd;clip-rule:evenodd;stroke-linejoin:round;stroke-miterlimit:2;">
    <g transform="matrix(1.10658,0,0,1.34848,-0.903773,-4.107)">
        <ellipse cx="11.576" cy="10.088" rx="10.247" ry="6.622" style="fill:rgb(129,195,226);"/>
    </g>
    <g transform="matrix(4.82423,0,0,4.82423,-4.25391,-5.50263)">
        <circle cx="1.938" cy="1.611" r="0.088"/>
    </g>
    <g transform="matrix(4.82423,0,0,4.82423,9.26024,-5.40015)">
        <circle cx="1.938" cy="1.611" r="0.088"/>
    </g>
    <g transform="matrix(4.82423,0,0,4.82423,9.82988,8.54958)">
        <circle cx="1.938" cy="1.611" r="0.088"/>
    </g>
    <g transform="matrix(4.82423,0,0,4.82423,-4.63594,8.60018)">
        <circle cx="1.938" cy="1.611" r="0.088"/>
    </g>
    <g transform="matrix(4.82423,0,0,4.82423,4.09494,-7.09532)">
        <circle cx="1.938" cy="1.611" r="0.088"/>
    </g>
    <g transform="matrix(4.82423,0,0,4.82423,13.8279,1.3525)">
        <circle cx="1.938" cy="1.611" r="0.088"/>
    </g>
    <g transform="matrix(4.82423,0,0,4.82423,-8.78682,1.34576)">
        <circle cx="1.938" cy="1.611" r="0.088"/>
    </g>
    <g transform="matrix(4.82423,0,0,4.82423,4.61763,10.4548)">
        <circle cx="1.938" cy="1.611" r="0.088"/>
    </g>
    <g transform="matrix(4.82423,0,0,4.82423,6.93121,-6.46896)">
        <circle cx="1.938" cy="1.611" r="0.088"/>
    </g>
    <g transform="matrix(4.82423,0,0,4.82423,11.6837,-3.55949)">
        <circle cx="1.938" cy="1.611" r="0.088"/>
    </g>
    <g transform="matrix(4.82423,0,0,4.82423,13.1729,-1.27742)">
        <circle cx="1.938" cy="1.611" r="0.088"/>
    </g>
    <g transform="matrix(4.82423,0,0,4.82423,13.4903,4.01541)">
        <circle cx="1.938" cy="1.611" r="0.088"/>
    </g>
    <g transform="matrix(4.82423,0,0,4.82423,12.1479,6.53352)">
        <circle cx="1.938" cy="1.611" r="0.088"/>
    </g>
    <g transform="matrix(4.82423,0,0,4.82423,7.40982,9.79709)">
        <circle cx="1.938" cy="1.611" r="0.088"/>
    </g>
    <g transform="matrix(4.82423,0,0,4.82423,0.731846,10.5225)">
        <circle cx="1.938" cy="1.611" r="0.088"/>
    </g>
    <g transform="matrix(4.82423,0,0,4.82423,-1.98588,9.89977)">
        <circle cx="1.938" cy="1.611" r="0.088"/>
    </g>
    <g transform="matrix(4.82423,0,0,4.82423,-6.76191,6.68582)">
        <circle cx="1.938" cy="1.611" r="0.088"/>
    </g>
    <g transform="matrix(4.82423,0,0,4.82423,-8.3772,4.13171)">
        <circle cx="1.938" cy="1.611" r="0.088"/>
    </g>
    <g transform="matrix(4.82423,0,0,4.82423,-8.05189,-1.45436)">
        <circle cx="1.938" cy="1.611" r="0.088"/>
    </g>
    <g transform="matrix(4.82423,0,0,4.82423,-6.32844,-3.84543)">
        <circle cx="1.938" cy="1.611" r="0.088"/>
    </g>
    <g transform="matrix(4.82423,0,0,4.82423,-1.93022,-6.46917)">
        <circle cx="1.938" cy="1.611" r="0.088"/>
    </g>
    <g transform="matrix(4.82423,0,0,4.82423,0.84576,-7.08409)">
        <circle cx="1.938" cy="1.611" r="0.088"/>
    </g>
</svg>
