<?xml version="1.0" encoding="UTF-8" standalone="no"?>
<!DOCTYPE svg PUBLIC "-//W3C//DTD SVG 1.1//EN" "http://www.w3.org/Graphics/SVG/1.1/DTD/svg11.dtd">
<svg width="100%" height="100%" viewBox="0 0 15 37" version="1.1" xmlns="http://www.w3.org/2000/svg" xmlns:xlink="http://www.w3.org/1999/xlink" xml:space="preserve" xmlns:serif="http://www.serif.com/" style="fill-rule:evenodd;clip-rule:evenodd;stroke-linejoin:round;stroke-miterlimit:2;">
    <g id="chimney" transform="matrix(1,0,0,1,-112.438,-27.5575)">
        <g id="path6840" transform="matrix(0.130788,0,0,0.101322,98.299,25.3323)">
            <path d="M137.719,68.5C132.734,111.502 127.721,154.5 122.719,197.5L112.438,197.5L112.438,202.5L135.156,202.5C136.361,209.566 142.54,215 149.938,215C157.335,215 163.483,209.566 164.688,202.5L187.438,202.5L187.438,197.5L177.156,197.5C172.257,154.489 167.003,111.517 162.156,68.5L137.719,68.5ZM142.156,73.5L157.719,73.5L172.156,197.5L164.688,197.5C163.483,190.434 157.335,185 149.938,185C142.54,185 136.361,190.434 135.156,197.5L127.719,197.5L142.156,73.5ZM149.938,190C155.49,190 159.938,194.448 159.938,200C159.938,205.552 155.49,210 149.938,210C144.385,210 139.938,205.552 139.938,200C139.938,194.448 144.385,190 149.938,190Z" style="fill-rule:nonzero;"/>
        </g>
        <g id="path6842" transform="matrix(0.130788,0,0,0.101322,98.299,25.3323)">
            <path d="M186.25,27.563C185.757,27.572 185.28,27.586 184.781,27.625C178.459,28.115 171.683,31.001 165.125,37.156C164.138,36.934 163.14,36.836 162.125,36.844C158.024,36.876 153.779,38.459 149.906,41C142.16,46.082 135.675,55.358 137.719,65.563L142.625,64.594C141.11,57.029 146.185,49.433 152.656,45.188C155.892,43.065 159.4,41.866 162.188,41.844C164.975,41.822 166.888,42.675 168.219,45L172.563,42.531C171.874,41.328 170.992,40.315 170,39.5C179.027,31.696 187.263,31.207 194.188,34C201.721,37.039 207.762,44.482 210.031,51.688C211.166,55.29 211.33,58.796 210.563,61.531C209.795,64.266 208.237,66.3 205.281,67.594C199.721,70.028 188.39,69.206 170.094,60.156C170.355,59.919 170.629,59.669 170.875,59.406C171.937,58.268 172.875,56.727 172.875,54.844L167.875,54.844C167.875,55.109 167.786,55.392 167.219,56C166.652,56.608 165.669,57.343 164.531,58.125C162.256,59.688 159.262,61.29 157.719,64.469L162.219,66.656C162.625,65.818 163.962,64.68 165.625,63.469C185.82,73.89 198.982,75.79 207.281,72.156C211.526,70.298 214.263,66.835 215.375,62.875C216.487,58.915 216.139,54.499 214.781,50.188C212.066,41.564 205.306,33.072 196.063,29.344C193.029,28.12 189.704,27.495 186.25,27.563Z" style="fill-rule:nonzero;"/>
        </g>
    </g>
    <g id="use6844" transform="matrix(1,0,0,1,-112.438,-27.5575)">
        <g id="path68401" serif:id="path6840" transform="matrix(0.130788,0,0,0.101322,98.299,25.3323)">
            <path d="M137.719,68.5C132.734,111.502 127.721,154.5 122.719,197.5L112.438,197.5L112.438,202.5L135.156,202.5C136.361,209.566 142.54,215 149.938,215C157.335,215 163.483,209.566 164.688,202.5L187.438,202.5L187.438,197.5L177.156,197.5C172.257,154.489 167.003,111.517 162.156,68.5L137.719,68.5ZM142.156,73.5L157.719,73.5L172.156,197.5L164.688,197.5C163.483,190.434 157.335,185 149.938,185C142.54,185 136.361,190.434 135.156,197.5L127.719,197.5L142.156,73.5ZM149.938,190C155.49,190 159.938,194.448 159.938,200C159.938,205.552 155.49,210 149.938,210C144.385,210 139.938,205.552 139.938,200C139.938,194.448 144.385,190 149.938,190Z" style="fill-rule:nonzero;"/>
        </g>
        <g id="path68421" serif:id="path6842" transform="matrix(0.130788,0,0,0.101322,98.299,25.3323)">
            <path d="M186.25,27.563C185.757,27.572 185.28,27.586 184.781,27.625C178.459,28.115 171.683,31.001 165.125,37.156C164.138,36.934 163.14,36.836 162.125,36.844C158.024,36.876 153.779,38.459 149.906,41C142.16,46.082 135.675,55.358 137.719,65.563L142.625,64.594C141.11,57.029 146.185,49.433 152.656,45.188C155.892,43.065 159.4,41.866 162.188,41.844C164.975,41.822 166.888,42.675 168.219,45L172.563,42.531C171.874,41.328 170.992,40.315 170,39.5C179.027,31.696 187.263,31.207 194.188,34C201.721,37.039 207.762,44.482 210.031,51.688C211.166,55.29 211.33,58.796 210.563,61.531C209.795,64.266 208.237,66.3 205.281,67.594C199.721,70.028 188.39,69.206 170.094,60.156C170.355,59.919 170.629,59.669 170.875,59.406C171.937,58.268 172.875,56.727 172.875,54.844L167.875,54.844C167.875,55.109 167.786,55.392 167.219,56C166.652,56.608 165.669,57.343 164.531,58.125C162.256,59.688 159.262,61.29 157.719,64.469L162.219,66.656C162.625,65.818 163.962,64.68 165.625,63.469C185.82,73.89 198.982,75.79 207.281,72.156C211.526,70.298 214.263,66.835 215.375,62.875C216.487,58.915 216.139,54.499 214.781,50.188C212.066,41.564 205.306,33.072 196.063,29.344C193.029,28.12 189.704,27.495 186.25,27.563Z" style="fill-rule:nonzero;"/>
        </g>
    </g>
</svg>
