<?xml version="1.0" encoding="UTF-8" standalone="no"?>
<!DOCTYPE svg PUBLIC "-//W3C//DTD SVG 1.1//EN" "http://www.w3.org/Graphics/SVG/1.1/DTD/svg11.dtd">
<svg width="100%" height="100%" viewBox="0 0 20 20" version="1.1" xmlns="http://www.w3.org/2000/svg" xmlns:xlink="http://www.w3.org/1999/xlink" xml:space="preserve" xmlns:serif="http://www.serif.com/" style="fill-rule:evenodd;clip-rule:evenodd;stroke-linejoin:round;stroke-miterlimit:2;">
    <g transform="matrix(0.16981,0,0,0.171205,-0.550831,-0.63453)">
        <path id="path12043" d="M13.506,92.031L57.456,92.031L58.869,12.281L60.994,12.281L61.344,28.606L78.719,20.431L78.619,27.531L78.869,34.619L79.719,41.656L81.419,48.531L83.931,55.181L87.044,61.569L90.619,67.731L94.906,73.356L99.281,77.844L62.406,84.931L62.406,92.031L106.706,92.031L101.906,97.306L96.856,102.294L91.394,106.731L85.294,110.369L78.706,113.144L71.756,115.069L64.644,116.119L57.481,116.294L50.394,115.606L43.469,114.031L36.744,111.556L30.369,108.244L24.531,104.131L19.369,99.244L14.881,93.794L13.506,92.031ZM24.494,88.119L24.044,80.994L23.969,73.919L24.656,66.906L26.344,60.031L28.894,53.369L32.156,46.981L36.031,40.981L40.569,35.531L45.819,30.831L51.619,26.731L55.319,24.331L51.494,30.319L48.194,36.569L45.744,43.231L44.156,50.181L43.356,57.269L43.394,64.356L44.344,71.369L45.756,77.844L24.494,88.119M11.381,88.494L8.269,82.106L5.644,75.569L3.956,68.706L3.244,61.594L3.519,54.419L4.731,47.344L6.819,40.469L9.756,33.919L13.481,27.806L17.956,22.206L23.081,17.219L28.819,12.931L35.069,9.356L41.731,6.631L48.744,4.744L55.944,3.781L63.231,3.706L70.469,4.531L77.519,6.244L84.256,8.844L90.531,12.344L96.269,16.644L101.406,21.681L105.894,27.344L109.719,33.531L112.769,40.144L114.994,47.081L116.369,54.194L116.756,61.344L116.106,68.356L114.394,75.169L111.856,81.781L108.919,88.294L108.831,88.494L103.169,88.494L106.356,82.094L109.106,75.569L110.931,68.769L111.694,61.681L111.344,54.506L110.019,47.394L107.731,40.544L104.556,34.056L100.544,28.106L95.769,22.744L90.281,18.144L84.181,14.344L77.569,11.444L70.644,9.469L63.469,8.494L56.231,8.544L49.081,9.631L42.131,11.706L35.544,14.681L29.469,18.544L24.006,23.206L19.294,28.594L15.381,34.581L12.256,41.081L9.969,47.931L8.619,55.044L8.244,62.219L8.956,69.281L10.844,76.069L13.669,82.569L16.694,88.494L11.381,88.494Z" style="fill:rgb(205,87,195);"/>
    </g>
</svg>
