<?xml version="1.0" encoding="UTF-8" standalone="no"?>
<!DOCTYPE svg PUBLIC "-//W3C//DTD SVG 1.1//EN" "http://www.w3.org/Graphics/SVG/1.1/DTD/svg11.dtd">
<svg width="100%" height="100%" viewBox="0 0 17 17" version="1.1" xmlns="http://www.w3.org/2000/svg" xmlns:xlink="http://www.w3.org/1999/xlink" xml:space="preserve" xmlns:serif="http://www.serif.com/" style="fill-rule:evenodd;clip-rule:evenodd;stroke-linejoin:round;stroke-miterlimit:2;">
    <g transform="matrix(0.146499,0,0,0.14658,-0.512745,-0.517609)">
        <path id="path6625" d="M57.063,3.531L49.813,4.281L42.688,5.938L35.875,8.406L29.531,11.75L23.844,15.906L18.938,20.875L14.688,26.438L10.906,32.469L7.344,38.688L11.594,41.156L13.188,38.5L17,32.438L21.125,26.688L25.844,21.5L31.281,17.063L37.469,13.531L44.188,10.906L51.313,9.25L58.656,8.594L66.031,8.938L73.281,10.281L80.188,12.625L86.531,15.875L92.156,20.031L96.938,25L100.969,30.688L104.438,36.813L107.531,43.344L110.469,50L116.125,54.281L114.875,47.688L113.063,40.844L110.344,34.219L106.719,28L102.281,22.313L97.094,17.188L91.344,12.813L85.063,9.219L78.406,6.5L71.469,4.625L64.313,3.656L57.063,3.531ZM6.281,42.219L4.719,49.375L3.656,56.375L3.5,63.344L4.406,70.313L5.906,77.313L32.156,62.781L38.219,66.344L44.406,69.875L50.75,73L57.406,75.438L64.344,76.938L71.438,77.594L78.625,77.531L85.781,76.688L92.688,74.969L99.219,72.313L105.281,68.719L110.969,64.5L116.5,59.938L111.188,55.563L105.5,51.375L99.406,47.875L92.844,45.281L85.906,43.594L78.75,42.688L71.563,42.531L64.438,43.094L57.5,44.563L50.906,47L44.563,50.25L38.344,53.688L32.156,57.125L6.281,42.219ZM94.5,55C97.26,55 99.5,57.24 99.5,60C99.5,62.76 97.26,65 94.5,65C91.74,65 89.5,62.76 89.5,60C89.5,57.24 91.74,55 94.5,55ZM116.5,65.281L110.469,69.875L109.156,73.594L106.594,80.281L103.594,86.688L99.813,92.563L95.063,97.781L89.438,102.281L83.156,105.938L76.406,108.656L69.438,110.406L62.344,111.188L55.188,111L48.125,109.813L41.219,107.719L34.625,104.688L28.563,100.813L23.281,96.125L18.813,90.656L15.031,84.656L11.594,78.375L7.344,80.844L7.75,81.719L11.031,88.031L14.781,94.031L19.281,99.469L24.594,104.25L30.531,108.313L36.938,111.625L43.719,114.063L50.719,115.75L57.844,116.469L65,116.313L72.031,115.25L78.875,113.25L85.406,110.406L91.625,106.781L97.344,102.438L102.469,97.406L106.844,91.813L110.219,85.656L112.781,79.094L114.781,72.25L116.5,65.281Z" style="fill:rgb(205,87,195);"/>
    </g>
</svg>
