<?xml version="1.0" encoding="UTF-8" standalone="no"?>
<!DOCTYPE svg PUBLIC "-//W3C//DTD SVG 1.1//EN" "http://www.w3.org/Graphics/SVG/1.1/DTD/svg11.dtd">
<svg width="100%" height="100%" viewBox="0 0 13 16" version="1.1" xmlns="http://www.w3.org/2000/svg" xmlns:xlink="http://www.w3.org/1999/xlink" xml:space="preserve" xmlns:serif="http://www.serif.com/" style="fill-rule:evenodd;clip-rule:evenodd;stroke-linejoin:round;stroke-miterlimit:2;">
    <g transform="matrix(0.0999726,0,0,0.100021,-2.73297,-1.10743)">
        <path id="path10693" d="M90.503,16.74C82.736,16.74 76.433,23.043 76.433,30.81C76.433,37.274 80.792,42.731 86.734,44.377L86.734,49.821L66.257,49.737L66.257,56.395L86.189,56.395L84.263,144.291C70.274,143.035 57.803,137.284 48.753,128.672L53.904,123.395L33.008,106.729L38.243,139.517L45.403,132.147C48.976,136.548 53.044,140.299 57.924,143.705C66.179,149.466 75.216,152.724 84.305,153.671L85.226,163.26L94.774,163.26L95.737,153.671C110.442,152.094 124.475,144.522 134.764,131.812L142.721,139.517L146.992,106.268L126.096,123.395L131.414,128.546C122.338,137.242 109.782,143.042 95.695,144.291L93.811,56.395L113.743,56.395L113.743,49.737L93.853,49.988L93.853,44.461C100.006,42.958 104.573,37.423 104.573,30.81C104.573,23.043 98.269,16.74 90.503,16.74ZM90.486,24.11C94.184,24.11 97.186,27.111 97.186,30.81C97.186,34.508 94.184,37.51 90.486,37.51C86.787,37.51 83.786,34.508 83.786,30.81C83.786,27.111 86.787,24.11 90.486,24.11Z" style="fill:rgb(163,0,117);"/>
    </g>
</svg>
