<?xml version="1.0" encoding="UTF-8" standalone="no"?>
<!DOCTYPE svg PUBLIC "-//W3C//DTD SVG 1.1//EN" "http://www.w3.org/Graphics/SVG/1.1/DTD/svg11.dtd">
<svg width="100%" height="100%" viewBox="0 0 15 25" version="1.1" xmlns="http://www.w3.org/2000/svg" xmlns:xlink="http://www.w3.org/1999/xlink" xml:space="preserve" xmlns:serif="http://www.serif.com/" style="fill-rule:evenodd;clip-rule:evenodd;stroke-linejoin:round;stroke-miterlimit:2;">
    <g transform="matrix(0.151551,0,0,0.157848,-15.502,-19.3694)">
        <g id="cairn">
            <path d="M148.91,126.31C137.56,126.89 128.5,136.33 128.5,147.81C128.5,151.69 129.54,155.32 131.34,158.47C130.09,158.24 128.81,158.16 127.5,158.16C115.75,158.16 106.03,167.72 106.03,179.69C106.03,186.93 109.59,193.29 115,197.19L113.81,197.19L113.81,202.84L137.81,202.84C139.1,208.38 144.05,212.5 149.97,212.5C155.89,212.5 160.84,208.38 162.12,202.84L186.12,202.84L186.12,197.19L184.97,197.19C190.38,193.29 193.94,186.93 193.94,179.69C193.94,167.72 184.25,158.16 172.5,158.16C171.19,158.16 169.9,158.24 168.66,158.47C170.46,155.32 171.5,151.69 171.5,147.81C171.5,135.96 161.85,126.31 150,126.31C149.73,126.31 149.37,126.29 148.91,126.31ZM149.09,130.31C149.29,130.3 149.6,130.31 150,130.31C159.69,130.31 167.5,138.12 167.5,147.81C167.5,157.5 159.69,165.31 150,165.31C140.31,165.31 132.5,157.5 132.5,147.81C132.5,138.43 139.84,130.78 149.09,130.31ZM127.5,162.28C137.29,162.28 145.06,170.11 145.06,179.69C145.06,189.26 137.29,197.09 127.5,197.09C117.71,197.09 109.91,189.26 109.91,179.69C109.91,170.11 117.71,162.28 127.5,162.28ZM172.5,162.28C182.29,162.28 190.06,170.11 190.06,179.69C190.06,189.26 182.29,197.09 172.5,197.09C162.71,197.09 154.91,189.26 154.91,179.69C154.91,170.11 162.71,162.28 172.5,162.28ZM146.06,168.94C147.34,169.18 148.65,169.31 150,169.31C151.34,169.31 152.64,169.17 153.91,168.94C152.08,172.1 151.03,175.76 151.03,179.69C151.03,182.56 151.61,185.31 152.62,187.81C151.77,187.63 150.88,187.53 149.97,187.53C149.08,187.53 148.21,187.63 147.38,187.81C148.39,185.31 148.94,182.56 148.94,179.69C148.94,175.75 147.89,172.1 146.06,168.94ZM149.97,192.5C153.11,192.5 155.79,194.45 156.91,197.19C157.26,198.06 157.47,199 157.47,200C157.47,204.14 154.11,207.5 149.97,207.5C145.83,207.5 142.47,204.14 142.47,200C142.47,199 142.68,198.06 143.03,197.19C144.15,194.45 146.83,192.5 149.97,192.5ZM143.03,197.19L156.91,197.19C152.23,197.18 147.72,197.18 143.03,197.19Z" style="fill-rule:nonzero;"/>
        </g>
    </g>
    <g transform="matrix(0.151551,0,0,0.157848,-15.502,-19.3694)">
        <g id="cairn1" serif:id="cairn">
            <path d="M148.91,126.31C137.56,126.89 128.5,136.33 128.5,147.81C128.5,151.69 129.54,155.32 131.34,158.47C130.09,158.24 128.81,158.16 127.5,158.16C115.75,158.16 106.03,167.72 106.03,179.69C106.03,186.93 109.59,193.29 115,197.19L113.81,197.19L113.81,202.84L137.81,202.84C139.1,208.38 144.05,212.5 149.97,212.5C155.89,212.5 160.84,208.38 162.12,202.84L186.12,202.84L186.12,197.19L184.97,197.19C190.38,193.29 193.94,186.93 193.94,179.69C193.94,167.72 184.25,158.16 172.5,158.16C171.19,158.16 169.9,158.24 168.66,158.47C170.46,155.32 171.5,151.69 171.5,147.81C171.5,135.96 161.85,126.31 150,126.31C149.73,126.31 149.37,126.29 148.91,126.31ZM149.09,130.31C149.29,130.3 149.6,130.31 150,130.31C159.69,130.31 167.5,138.12 167.5,147.81C167.5,157.5 159.69,165.31 150,165.31C140.31,165.31 132.5,157.5 132.5,147.81C132.5,138.43 139.84,130.78 149.09,130.31ZM127.5,162.28C137.29,162.28 145.06,170.11 145.06,179.69C145.06,189.26 137.29,197.09 127.5,197.09C117.71,197.09 109.91,189.26 109.91,179.69C109.91,170.11 117.71,162.28 127.5,162.28ZM172.5,162.28C182.29,162.28 190.06,170.11 190.06,179.69C190.06,189.26 182.29,197.09 172.5,197.09C162.71,197.09 154.91,189.26 154.91,179.69C154.91,170.11 162.71,162.28 172.5,162.28ZM146.06,168.94C147.34,169.18 148.65,169.31 150,169.31C151.34,169.31 152.64,169.17 153.91,168.94C152.08,172.1 151.03,175.76 151.03,179.69C151.03,182.56 151.61,185.31 152.62,187.81C151.77,187.63 150.88,187.53 149.97,187.53C149.08,187.53 148.21,187.63 147.38,187.81C148.39,185.31 148.94,182.56 148.94,179.69C148.94,175.75 147.89,172.1 146.06,168.94ZM149.97,192.5C153.11,192.5 155.79,194.45 156.91,197.19C157.26,198.06 157.47,199 157.47,200C157.47,204.14 154.11,207.5 149.97,207.5C145.83,207.5 142.47,204.14 142.47,200C142.47,199 142.68,198.06 143.03,197.19C144.15,194.45 146.83,192.5 149.97,192.5ZM143.03,197.19L156.91,197.19C152.23,197.18 147.72,197.18 143.03,197.19Z" style="fill-rule:nonzero;stroke:black;stroke-width:5.5px;"/>
        </g>
    </g>
</svg>
