<?xml version="1.0" encoding="UTF-8" standalone="no"?>
<!DOCTYPE svg PUBLIC "-//W3C//DTD SVG 1.1//EN" "http://www.w3.org/Graphics/SVG/1.1/DTD/svg11.dtd">
<svg width="100%" height="100%" viewBox="0 0 13 25" version="1.1" xmlns="http://www.w3.org/2000/svg" xmlns:xlink="http://www.w3.org/1999/xlink" xml:space="preserve" xmlns:serif="http://www.serif.com/" style="fill-rule:evenodd;clip-rule:evenodd;stroke-linecap:round;stroke-linejoin:round;stroke-miterlimit:1.5;">
    <g id="path90440" transform="matrix(0.135235,0,0,0.0812264,0.566929,0.566929)">
        <path d="M25.938,0L25.938,0.031L22.156,0.031L12.156,145.219L0,145.219L0,150.875L29.688,150.875C30.975,156.408 35.921,160.531 41.844,160.531C47.769,160.531 52.715,156.411 54,150.875L83.844,150.875L83.844,145.219L70.781,145.219L60.844,0.031L55.438,0.031L55.438,0L25.938,0ZM29.688,5.875L53.344,5.875L54.656,24.969L28.375,24.969L29.688,5.875ZM27.906,31.594L55.094,31.594L62.875,145.219L54,145.219C52.715,139.683 47.769,135.563 41.844,135.563C35.921,135.563 30.975,139.686 29.688,145.219L20.094,145.219L27.906,31.594ZM41.844,140.531C45.984,140.531 49.344,143.891 49.344,148.031C49.344,152.171 45.984,155.531 41.844,155.531C37.704,155.531 34.344,152.171 34.344,148.031C34.344,143.891 37.704,140.531 41.844,140.531Z" style="fill:rgb(158,127,44);"/>
    </g>
    <path d="M8.258,1.17L3.759,4.073" style="fill:none;stroke:rgb(158,127,44);stroke-width:1px;"/>
    <path d="M8.84,5.411L3.235,9.758" style="fill:none;stroke:rgb(158,127,44);stroke-width:1px;"/>
    <g transform="matrix(0.931335,0.0514063,0.0514063,0.961515,0.0159645,-0.0119518)">
        <path d="M9.444,9.805L6.85,11.747" style="fill:none;stroke:rgb(158,127,44);stroke-width:1px;"/>
    </g>
</svg>
