<?xml version="1.0" encoding="UTF-8" standalone="no"?>
<!DOCTYPE svg PUBLIC "-//W3C//DTD SVG 1.1//EN" "http://www.w3.org/Graphics/SVG/1.1/DTD/svg11.dtd">
<svg width="100%" height="100%" viewBox="0 0 31 20" version="1.1" xmlns="http://www.w3.org/2000/svg" xmlns:xlink="http://www.w3.org/1999/xlink" xml:space="preserve" xmlns:serif="http://www.serif.com/" style="fill-rule:evenodd;clip-rule:evenodd;stroke-linejoin:round;stroke-miterlimit:2;">
    <g transform="matrix(1,0,0,1,8.60841,-4.63484)">
        <circle cx="6.437" cy="5.733" r="0.857" style="fill:rgb(136,152,139);"/>
    </g>
    <g transform="matrix(1,0,0,1,-5.2442,4.15924)">
        <circle cx="6.437" cy="5.733" r="0.857" style="fill:rgb(136,152,139);"/>
    </g>
    <g transform="matrix(1,0,0,1,-4.40397,7.20972)">
        <circle cx="6.437" cy="5.733" r="0.857" style="fill:rgb(136,152,139);"/>
    </g>
    <g transform="matrix(1,0,0,1,11.4865,12.7267)">
        <circle cx="6.437" cy="5.733" r="0.857" style="fill:rgb(136,152,139);"/>
    </g>
    <g transform="matrix(1,0,0,1,11.2615,-4.44627)">
        <circle cx="6.437" cy="5.733" r="0.857" style="fill:rgb(136,152,139);"/>
    </g>
    <g transform="matrix(1,0,0,1,-4.31119,1.00914)">
        <circle cx="6.437" cy="5.733" r="0.857" style="fill:rgb(136,152,139);"/>
    </g>
    <g transform="matrix(1,0,0,1,-2.42403,9.48853)">
        <circle cx="6.437" cy="5.733" r="0.857" style="fill:rgb(136,152,139);"/>
    </g>
    <g transform="matrix(1,0,0,1,14.3359,12.1566)">
        <circle cx="6.437" cy="5.733" r="0.857" style="fill:rgb(136,152,139);"/>
    </g>
    <g transform="matrix(1,0,0,1,14.2149,-3.69151)">
        <circle cx="6.437" cy="5.733" r="0.857" style="fill:rgb(136,152,139);"/>
    </g>
    <g transform="matrix(1,0,0,1,-2.297,-1.2138)">
        <circle cx="6.437" cy="5.733" r="0.857" style="fill:rgb(136,152,139);"/>
    </g>
    <g transform="matrix(1,0,0,1,0.0426412,11.0609)">
        <circle cx="6.437" cy="5.733" r="0.857" style="fill:rgb(136,152,139);"/>
    </g>
    <g transform="matrix(1,0,0,1,17.1488,11.0253)">
        <circle cx="6.437" cy="5.733" r="0.857" style="fill:rgb(136,152,139);"/>
    </g>
    <g transform="matrix(1,0,0,1,17.0776,-2.63606)">
        <circle cx="6.437" cy="5.733" r="0.857" style="fill:rgb(136,152,139);"/>
    </g>
    <g transform="matrix(1,0,0,1,0.345131,-2.76774)">
        <circle cx="6.437" cy="5.733" r="0.857" style="fill:rgb(136,152,139);"/>
    </g>
    <g transform="matrix(1,0,0,1,2.35955,12.0141)">
        <circle cx="6.437" cy="5.733" r="0.857" style="fill:rgb(136,152,139);"/>
    </g>
    <g transform="matrix(1,0,0,1,19.8635,9.26129)">
        <circle cx="6.437" cy="5.733" r="0.857" style="fill:rgb(136,152,139);"/>
    </g>
    <g transform="matrix(1,0,0,1,19.603,-0.986901)">
        <circle cx="6.437" cy="5.733" r="0.857" style="fill:rgb(136,152,139);"/>
    </g>
    <g transform="matrix(1,0,0,1,2.91484,-3.80583)">
        <circle cx="6.437" cy="5.733" r="0.857" style="fill:rgb(136,152,139);"/>
    </g>
    <g transform="matrix(1,0,0,1,5.21022,12.7778)">
        <circle cx="6.437" cy="5.733" r="0.857" style="fill:rgb(136,152,139);"/>
    </g>
    <g transform="matrix(1,0,0,1,21.5523,7.19909)">
        <circle cx="6.437" cy="5.733" r="0.857" style="fill:rgb(136,152,139);"/>
    </g>
    <g transform="matrix(1,0,0,1,21.6288,1.09383)">
        <circle cx="6.437" cy="5.733" r="0.857" style="fill:rgb(136,152,139);"/>
    </g>
    <g transform="matrix(1,0,0,1,5.88604,-4.41086)">
        <circle cx="6.437" cy="5.733" r="0.857" style="fill:rgb(136,152,139);"/>
    </g>
    <g transform="matrix(1,0,0,1,8.36264,12.9796)">
        <circle cx="6.437" cy="5.733" r="0.857" style="fill:rgb(136,152,139);"/>
    </g>
    <g transform="matrix(1,0,0,1,22.3803,4.27652)">
        <circle cx="6.437" cy="5.733" r="0.857" style="fill:rgb(136,152,139);"/>
    </g>
    <g id="path22396" transform="matrix(0.16037,0,0,0.194358,2.84951,-5.5227)">
        <path d="M12.981,102.381L11.556,97.431L39.919,80.044L11.181,62.344L12.606,57.394L44.506,77.206L56.556,69.769L62.631,66.106L68.981,63.006L75.694,60.681L82.631,58.994L89.644,57.969L96.756,57.556L103.856,57.781L110.906,58.631L117.856,60.144L124.631,62.294L131.181,65.131L137.356,68.644L143.056,72.844L148.331,77.581L150.819,79.994L145.594,84.781L140.069,89.194L134.119,93.081L127.781,96.306L121.169,98.869L114.306,100.794L107.306,102.019L100.231,102.606L93.131,102.506L86.056,101.744L79.081,100.331L72.281,98.231L65.744,95.444L59.506,92.131L54.094,88.906L44.506,83.244L12.981,102.381ZM49.469,80.044L58.331,85.706L64.569,89.106L70.969,92.131L77.631,94.544L84.494,96.381L91.506,97.544L98.556,97.794L105.469,97.381L103.644,90.544L102.419,83.531L102.269,76.456L103.494,69.494L105.444,62.656L105.456,62.631L98.369,62.569L91.294,62.781L84.294,63.631L77.381,65.369L70.756,67.881L64.456,71.081L58.306,74.644L57.631,75.069L49.469,80.044M110.794,96.306L117.656,94.569L124.394,92.419L130.869,89.494L136.906,85.756L142.344,81.244L143.731,79.994L138.256,75.481L132.431,71.469L126.081,68.281L119.406,65.906L112.569,64.131L110.781,63.706L108.519,70.431L107.419,77.431L107.806,84.506L109.344,91.419L110.794,96.306ZM126.719,75.744L126.231,77.719L124.894,79.231L122.981,79.969L120.969,79.731L119.281,78.581L118.344,76.769L118.344,74.744L119.281,72.944L120.956,71.769L122.981,71.519L124.894,72.256L126.231,73.769L126.719,75.744Z" style="fill:rgb(136,152,139);"/>
    </g>
</svg>
